<svg width="40" height="41" viewBox="0 0 40 41" fill="none" xmlns="http://www.w3.org/2000/svg">
<path d="M19.9999 3.8999C10.8333 3.8999 3.33325 11.3832 3.33325 20.5999C3.33325 28.9332 9.43325 35.8499 17.3999 37.0999V25.4332H13.1666V20.5999H17.3999V16.9166C17.3999 12.7332 19.8833 10.4332 23.6999 10.4332C25.5166 10.4332 27.4166 10.7499 27.4166 10.7499V14.8666H25.3166C23.2499 14.8666 22.5999 16.1499 22.5999 17.4666V20.5999H27.2333L26.4833 25.4332H22.5999V37.0999C26.5273 36.4796 30.1036 34.4758 32.6831 31.45C35.2627 28.4242 36.6755 24.576 36.6666 20.5999C36.6666 11.3832 29.1666 3.8999 19.9999 3.8999Z" fill="#828282"/>
</svg>
