<svg width="40" height="41" viewBox="0 0 40 41" fill="none" xmlns="http://www.w3.org/2000/svg">
<path d="M12.9999 3.8335H26.9999C32.3333 3.8335 36.6666 8.16683 36.6666 13.5002V27.5002C36.6666 30.0639 35.6481 32.5227 33.8353 34.3355C32.0224 36.1484 29.5637 37.1668 26.9999 37.1668H12.9999C7.66659 37.1668 3.33325 32.8335 3.33325 27.5002V13.5002C3.33325 10.9364 4.3517 8.47765 6.16455 6.6648C7.9774 4.85195 10.4362 3.8335 12.9999 3.8335ZM12.6666 7.16683C11.0753 7.16683 9.54916 7.79897 8.42394 8.92419C7.29873 10.0494 6.66659 11.5755 6.66659 13.1668V27.8335C6.66659 31.1502 9.34992 33.8335 12.6666 33.8335H27.3333C28.9245 33.8335 30.4507 33.2014 31.5759 32.0761C32.7011 30.9509 33.3333 29.4248 33.3333 27.8335V13.1668C33.3333 9.85016 30.6499 7.16683 27.3333 7.16683H12.6666ZM28.7499 9.66683C29.3025 9.66683 29.8324 9.88632 30.2231 10.277C30.6138 10.6677 30.8333 11.1976 30.8333 11.7502C30.8333 12.3027 30.6138 12.8326 30.2231 13.2233C29.8324 13.614 29.3025 13.8335 28.7499 13.8335C28.1974 13.8335 27.6675 13.614 27.2768 13.2233C26.8861 12.8326 26.6666 12.3027 26.6666 11.7502C26.6666 11.1976 26.8861 10.6677 27.2768 10.277C27.6675 9.88632 28.1974 9.66683 28.7499 9.66683ZM19.9999 12.1668C22.2101 12.1668 24.3297 13.0448 25.8925 14.6076C27.4553 16.1704 28.3333 18.29 28.3333 20.5002C28.3333 22.7103 27.4553 24.8299 25.8925 26.3927C24.3297 27.9555 22.2101 28.8335 19.9999 28.8335C17.7898 28.8335 15.6702 27.9555 14.1074 26.3927C12.5446 24.8299 11.6666 22.7103 11.6666 20.5002C11.6666 18.29 12.5446 16.1704 14.1074 14.6076C15.6702 13.0448 17.7898 12.1668 19.9999 12.1668ZM19.9999 15.5002C18.6738 15.5002 17.4021 16.0269 16.4644 16.9646C15.5267 17.9023 14.9999 19.1741 14.9999 20.5002C14.9999 21.8262 15.5267 23.098 16.4644 24.0357C17.4021 24.9734 18.6738 25.5002 19.9999 25.5002C21.326 25.5002 22.5978 24.9734 23.5355 24.0357C24.4731 23.098 24.9999 21.8262 24.9999 20.5002C24.9999 19.1741 24.4731 17.9023 23.5355 16.9646C22.5978 16.0269 21.326 15.5002 19.9999 15.5002Z" fill="#828282"/>
</svg>
