<svg width="40" height="41" viewBox="0 0 40 41" fill="none" xmlns="http://www.w3.org/2000/svg">
<path d="M31.6667 5.5C32.5507 5.5 33.3986 5.85119 34.0237 6.47631C34.6488 7.10143 35 7.94928 35 8.83333V32.1667C35 33.0507 34.6488 33.8986 34.0237 34.5237C33.3986 35.1488 32.5507 35.5 31.6667 35.5H8.33333C7.44928 35.5 6.60143 35.1488 5.97631 34.5237C5.35119 33.8986 5 33.0507 5 32.1667V8.83333C5 7.94928 5.35119 7.10143 5.97631 6.47631C6.60143 5.85119 7.44928 5.5 8.33333 5.5H31.6667ZM30.8333 31.3333V22.5C30.8333 21.059 30.2609 19.677 29.2419 18.6581C28.223 17.6391 26.841 17.0667 25.4 17.0667C23.9833 17.0667 22.3333 17.9333 21.5333 19.2333V17.3833H16.8833V31.3333H21.5333V23.1167C21.5333 21.8333 22.5667 20.7833 23.85 20.7833C24.4688 20.7833 25.0623 21.0292 25.4999 21.4668C25.9375 21.9043 26.1833 22.4978 26.1833 23.1167V31.3333H30.8333ZM11.4667 14.7667C12.2093 14.7667 12.9215 14.4717 13.4466 13.9466C13.9717 13.4215 14.2667 12.7093 14.2667 11.9667C14.2667 10.4167 13.0167 9.15 11.4667 9.15C10.7196 9.15 10.0032 9.44675 9.47498 9.97498C8.94675 10.5032 8.65 11.2196 8.65 11.9667C8.65 13.5167 9.91667 14.7667 11.4667 14.7667ZM13.7833 31.3333V17.3833H9.16667V31.3333H13.7833Z" fill="#828282"/>
</svg>
