<svg width="40" height="41" viewBox="0 0 40 41" fill="none" xmlns="http://www.w3.org/2000/svg">
<path d="M16.6666 25.5002L25.3166 20.5002L16.6666 15.5002V25.5002ZM35.9333 12.4502C36.1499 13.2335 36.2999 14.2835 36.3999 15.6168C36.5166 16.9502 36.5666 18.1002 36.5666 19.1002L36.6666 20.5002C36.6666 24.1502 36.3999 26.8335 35.9333 28.5502C35.5166 30.0502 34.5499 31.0168 33.0499 31.4335C32.2666 31.6502 30.8333 31.8002 28.6333 31.9002C26.4666 32.0168 24.4833 32.0668 22.6499 32.0668L19.9999 32.1668C13.0166 32.1668 8.66659 31.9002 6.94992 31.4335C5.44992 31.0168 4.48325 30.0502 4.06659 28.5502C3.84992 27.7668 3.69992 26.7168 3.59992 25.3835C3.48325 24.0502 3.43325 22.9002 3.43325 21.9002L3.33325 20.5002C3.33325 16.8502 3.59992 14.1668 4.06659 12.4502C4.48325 10.9502 5.44992 9.9835 6.94992 9.56683C7.73325 9.35016 9.16659 9.20016 11.3666 9.10016C13.5333 8.9835 15.5166 8.9335 17.3499 8.9335L19.9999 8.8335C26.9833 8.8335 31.3333 9.10016 33.0499 9.56683C34.5499 9.9835 35.5166 10.9502 35.9333 12.4502Z" fill="#828282"/>
</svg>
